<svg id="Layer_1" data-name="Layer 1" xmlns="http://www.w3.org/2000/svg" viewBox="0 0 81.46 81.46"><defs><style>.cls-1{fill:#4a4e69;}</style></defs><path class="cls-1" d="M77.06,431.38H69.43v-7.72a1.82,1.82,0,1,0-3.64,0v7.72H58.06a1.82,1.82,0,0,0,0,3.64h7.73v7.63a1.82,1.82,0,1,0,3.64,0V435h7.63a1.82,1.82,0,0,0,0-3.64Z" transform="translate(-32.54 -398.13)"/><path class="cls-1" d="M87,413.53a27.65,27.65,0,1,0,0,39.11,27.68,27.68,0,0,0,0-39.11Zm-2.57,36.53a24,24,0,1,1,0-33.95,24,24,0,0,1,0,33.95Z" transform="translate(-32.54 -398.13)"/><path class="cls-1" d="M96.5,452.56A35,35,0,1,0,65,467.94c.82.06,1.64.09,2.45.09A35,35,0,0,0,87,462.1l15.48,15.49a6.75,6.75,0,0,0,9.61-9.47l-.06-.06Zm-10.41,5.69h0a31.32,31.32,0,1,1,6.54-6.53A30.82,30.82,0,0,1,86.09,458.25ZM109.42,475a3.11,3.11,0,0,1-2.2.91A3.06,3.06,0,0,1,105,475L89.91,459.89c.78-.66,1.55-1.36,2.29-2.1s1.44-1.5,2.09-2.29l15.13,15.13a3.08,3.08,0,0,1,0,4.37v0Z" transform="translate(-32.54 -398.13)"/></svg>