<svg width="72" height="72" viewBox="0 0 72 72" fill="none" xmlns="http://www.w3.org/2000/svg">
<path fill-rule="evenodd" clip-rule="evenodd" d="M22.9367 51.6731C22.9367 51.0866 23.1697 50.5241 23.5844 50.1094C23.9992 49.6946 24.5617 49.4616 25.1482 49.4616H64.9546C65.5411 49.4616 66.1036 49.6946 66.5184 50.1094C66.9331 50.5241 67.1661 51.0866 67.1661 51.6731C67.1661 52.2596 66.9331 52.8221 66.5184 53.2369C66.1036 53.6516 65.5411 53.8846 64.9546 53.8846H25.1482C24.5617 53.8846 23.9992 53.6516 23.5844 53.2369C23.1697 52.8221 22.9367 52.2596 22.9367 51.6731ZM22.9367 33.9814C22.9367 33.3948 23.1697 32.8323 23.5844 32.4176C23.9992 32.0029 24.5617 31.7699 25.1482 31.7699H64.9546C65.5411 31.7699 66.1036 32.0029 66.5184 32.4176C66.9331 32.8323 67.1661 33.3948 67.1661 33.9814C67.1661 34.5679 66.9331 35.1304 66.5184 35.5451C66.1036 35.9598 65.5411 36.1928 64.9546 36.1928H25.1482C24.5617 36.1928 23.9992 35.9598 23.5844 35.5451C23.1697 35.1304 22.9367 34.5679 22.9367 33.9814ZM22.9367 16.2896C22.9367 15.7031 23.1697 15.1406 23.5844 14.7259C23.9992 14.3111 24.5617 14.0781 25.1482 14.0781H64.9546C65.5411 14.0781 66.1036 14.3111 66.5184 14.7259C66.9331 15.1406 67.1661 15.7031 67.1661 16.2896C67.1661 16.8761 66.9331 17.4386 66.5184 17.8533C66.1036 18.2681 65.5411 18.5011 64.9546 18.5011H25.1482C24.5617 18.5011 23.9992 18.2681 23.5844 17.8533C23.1697 17.4386 22.9367 16.8761 22.9367 16.2896ZM17.868 10.3009C18.074 10.5064 18.2374 10.7504 18.3489 11.0191C18.4603 11.2878 18.5177 11.5758 18.5177 11.8667C18.5177 12.1576 18.4603 12.4456 18.3489 12.7143C18.2374 12.9829 18.074 13.227 17.868 13.4324L11.2336 20.0668C11.0282 20.2727 10.7842 20.4361 10.5155 20.5476C10.2468 20.6591 9.95878 20.7165 9.6679 20.7165C9.37701 20.7165 9.08899 20.6591 8.82031 20.5476C8.55164 20.4361 8.3076 20.2727 8.10218 20.0668L5.89071 17.8553C5.68509 17.6497 5.52199 17.4056 5.41072 17.137C5.29944 16.8683 5.24216 16.5804 5.24216 16.2896C5.24216 15.9988 5.29944 15.7109 5.41072 15.4422C5.52199 15.1736 5.68509 14.9295 5.89071 14.7239C6.09632 14.5183 6.34042 14.3552 6.60907 14.2439C6.87771 14.1326 7.16565 14.0753 7.45643 14.0753C7.74721 14.0753 8.03514 14.1326 8.30379 14.2439C8.57244 14.3552 8.81653 14.5183 9.02215 14.7239L9.6679 15.3741L14.7366 10.3009C14.942 10.095 15.186 9.93161 15.4547 9.82012C15.7234 9.70863 16.0114 9.65125 16.3023 9.65125C16.5932 9.65125 16.8812 9.70863 17.1499 9.82012C17.4186 9.93161 17.6626 10.095 17.868 10.3009ZM17.868 27.9927C18.074 28.1981 18.2374 28.4422 18.3489 28.7108C18.4603 28.9795 18.5177 29.2675 18.5177 29.5584C18.5177 29.8493 18.4603 30.1373 18.3489 30.406C18.2374 30.6747 18.074 30.9187 17.868 31.1241L11.2336 37.7585C11.0282 37.9645 10.7842 38.1279 10.5155 38.2394C10.2468 38.3509 9.95878 38.4082 9.6679 38.4082C9.37701 38.4082 9.08899 38.3509 8.82031 38.2394C8.55164 38.1279 8.3076 37.9645 8.10218 37.7585L5.89071 35.5471C5.47545 35.1318 5.24216 34.5686 5.24216 33.9814C5.24216 33.3941 5.47545 32.8309 5.89071 32.4156C6.30596 32.0004 6.86917 31.7671 7.45643 31.7671C8.04369 31.7671 8.60689 32.0004 9.02215 32.4156L9.6679 33.0658L14.7366 27.9927C14.942 27.7867 15.186 27.6234 15.4547 27.5119C15.7234 27.4004 16.0114 27.343 16.3023 27.343C16.5932 27.343 16.8812 27.4004 17.1499 27.5119C17.4186 27.6234 17.6626 27.7867 17.868 27.9927ZM17.868 45.6844C18.074 45.8899 18.2374 46.1339 18.3489 46.4026C18.4603 46.6713 18.5177 46.9593 18.5177 47.2502C18.5177 47.541 18.4603 47.8291 18.3489 48.0977C18.2374 48.3664 18.074 48.6105 17.868 48.8159L11.2336 55.4503C11.0282 55.6562 10.7842 55.8196 10.5155 55.9311C10.2468 56.0426 9.95878 56.1 9.6679 56.1C9.37701 56.1 9.08899 56.0426 8.82031 55.9311C8.55164 55.8196 8.3076 55.6562 8.10218 55.4503L5.89071 53.2388C5.47545 52.8236 5.24216 52.2604 5.24216 51.6731C5.24216 51.0858 5.47545 50.5226 5.89071 50.1074C6.30596 49.6921 6.86917 49.4588 7.45643 49.4588C8.04369 49.4588 8.60689 49.6921 9.02215 50.1074L9.6679 50.7576L14.7366 45.6844C14.942 45.4785 15.186 45.3151 15.4547 45.2036C15.7234 45.0921 16.0114 45.0347 16.3023 45.0347C16.5932 45.0347 16.8812 45.0921 17.1499 45.2036C17.4186 45.3151 17.6626 45.4785 17.868 45.6844Z" fill="#4A4E69"/>
</svg>
