<svg width="72" height="72" viewBox="0 0 72 72" fill="none" xmlns="http://www.w3.org/2000/svg">
<path d="M14.0908 47.2079V44.9964H9.6679V47.2079C9.6679 51.3135 11.2989 55.251 14.202 58.1541C17.1051 61.0572 21.0426 62.6882 25.1482 62.6882H31.7826V58.2652H25.1482C22.2156 58.2652 19.4031 57.1002 17.3295 55.0266C15.2558 52.9529 14.0908 50.1405 14.0908 47.2079Z" fill="#4A4E69"/>
<path d="M53.8973 25.0932V27.3047H58.3202V25.0932C58.3202 20.9876 56.6893 17.0501 53.7861 14.147C50.883 11.2439 46.9456 9.61292 42.8399 9.61292H36.2055V14.0359H42.8399C44.292 14.0359 45.7299 14.3219 47.0714 14.8775C48.4129 15.4332 49.6319 16.2477 50.6587 17.2745C51.6854 18.3012 52.4999 19.5202 53.0556 20.8617C53.6113 22.2033 53.8973 23.6411 53.8973 25.0932Z" fill="#4A4E69"/>
<path d="M25.1482 25.0932H11.8794C10.1198 25.0932 8.43233 25.7922 7.18813 27.0364C5.94394 28.2806 5.24496 29.9681 5.24496 31.7276V36.1505H9.6679V31.7276C9.6679 31.1411 9.90089 30.5786 10.3156 30.1639C10.7304 29.7491 11.2928 29.5161 11.8794 29.5161H25.1482C25.7347 29.5161 26.2972 29.7491 26.7119 30.1639C27.1267 30.5786 27.3596 31.1411 27.3596 31.7276V36.1505H31.7826V31.7276C31.7826 29.9681 31.0836 28.2806 29.8394 27.0364C28.5952 25.7922 26.9077 25.0932 25.1482 25.0932Z" fill="#4A4E69"/>
<path d="M18.5138 22.8817C20.2633 22.8817 21.9736 22.3629 23.4283 21.3909C24.883 20.4189 26.0168 19.0374 26.6863 17.421C27.3558 15.8046 27.531 14.026 27.1897 12.3101C26.8484 10.5941 26.0059 9.01796 24.7688 7.78084C23.5316 6.54372 21.9555 5.70124 20.2395 5.35992C18.5236 5.0186 16.745 5.19377 15.1286 5.8633C13.5122 6.53282 12.1307 7.66662 11.1587 9.12132C10.1867 10.576 9.6679 12.2863 9.6679 14.0358C9.6679 16.3819 10.5999 18.6319 12.2588 20.2908C13.9177 21.9497 16.1677 22.8817 18.5138 22.8817ZM18.5138 9.61288C19.3885 9.61288 20.2437 9.87228 20.971 10.3583C21.6984 10.8443 22.2653 11.535 22.6 12.3432C22.9348 13.1514 23.0224 14.0407 22.8517 14.8987C22.6811 15.7567 22.2598 16.5448 21.6413 17.1633C21.0227 17.7819 20.2346 18.2031 19.3766 18.3738C18.5187 18.5444 17.6294 18.4568 16.8212 18.1221C16.013 17.7873 15.3222 17.2204 14.8362 16.4931C14.3502 15.7657 14.0908 14.9106 14.0908 14.0358C14.0908 12.8628 14.5568 11.7378 15.3863 10.9083C16.2157 10.0789 17.3407 9.61288 18.5138 9.61288Z" fill="#4A4E69"/>
<path d="M60.5317 56.0538H47.2629C45.5033 56.0538 43.8158 56.7528 42.5716 57.9969C41.3274 59.2411 40.6285 60.9286 40.6285 62.6882V67.1111H45.0514V62.6882C45.0514 62.1017 45.2844 61.5392 45.6991 61.1244C46.1139 60.7097 46.6764 60.4767 47.2629 60.4767H60.5317C61.1182 60.4767 61.6807 60.7097 62.0954 61.1244C62.5102 61.5392 62.7432 62.1017 62.7432 62.6882V67.1111H67.1661V62.6882C67.1661 60.9286 66.4671 59.2411 65.2229 57.9969C63.9787 56.7528 62.2912 56.0538 60.5317 56.0538Z" fill="#4A4E69"/>
<path d="M45.0514 44.9964C45.0514 46.7459 45.5702 48.4562 46.5422 49.9109C47.5142 51.3656 48.8957 52.4994 50.5121 53.1689C52.1285 53.8384 53.9071 54.0136 55.623 53.6723C57.339 53.331 58.9151 52.4885 60.1523 51.2514C61.3894 50.0142 62.2319 48.4381 62.5732 46.7221C62.9145 45.0062 62.7393 43.2276 62.0698 41.6112C61.4003 39.9948 60.2665 38.6133 58.8118 37.6413C57.3571 36.6693 55.6468 36.1505 53.8973 36.1505C51.5512 36.1505 49.3012 37.0825 47.6423 38.7414C45.9834 40.4003 45.0514 42.6503 45.0514 44.9964ZM58.3202 44.9964C58.3202 45.8712 58.0608 46.7263 57.5748 47.4536C57.0888 48.181 56.3981 48.7479 55.5899 49.0826C54.7817 49.4174 53.8924 49.505 53.0344 49.3343C52.1764 49.1637 51.3884 48.7424 50.7698 48.1239C50.1512 47.5053 49.73 46.7172 49.5593 45.8593C49.3887 45.0013 49.4763 44.112 49.811 43.3038C50.1458 42.4956 50.7127 41.8048 51.44 41.3188C52.1674 40.8329 53.0225 40.5735 53.8973 40.5735C55.0703 40.5735 56.1953 41.0394 57.0248 41.8689C57.8542 42.6984 58.3202 43.8234 58.3202 44.9964Z" fill="#4A4E69"/>
</svg>
