<svg width="72" height="72" viewBox="0 0 72 72" fill="none" xmlns="http://www.w3.org/2000/svg">
<path d="M29.7178 62.4164C34.9664 60.3524 33.8164 54.6615 31.1626 51.0642C28.5384 47.3784 24.9116 44.8426 21.2553 42.3952C18.6465 40.751 16.3172 38.7004 14.3555 36.3211C13.5299 35.348 11.8491 33.5494 13.5593 33.1955C15.299 32.8417 18.3066 34.5519 19.8399 35.2006C22.5232 36.3211 25.1769 37.6185 27.6538 39.1517L30.6319 34.1391C26.032 31.102 20.1348 28.4187 14.6503 27.6226C11.5248 27.1508 8.22233 27.7995 7.16083 31.1905C6.21727 34.1096 7.72107 37.0582 9.43127 39.3581C13.4709 44.7541 19.7515 47.3489 24.4398 52.0077C25.4423 52.9808 26.6512 54.1308 27.241 55.4871C27.8602 56.7845 27.7128 56.873 26.3269 56.873C22.6706 56.873 18.1002 54.0128 15.1221 52.1257L12.144 57.1384C16.6554 59.9101 24.2039 64.2445 29.7178 62.4164ZM62.4181 16.4178C63.0668 15.7691 63.0668 14.7076 62.4181 14.0884L58.5849 10.2552C58.276 9.95757 57.8638 9.79126 57.4349 9.79126C57.006 9.79126 56.5938 9.95757 56.2849 10.2552L53.2773 13.2628L59.4105 19.396L62.4181 16.4178ZM33.4036 33.1365V39.2697H39.5367L57.6708 21.1356L51.5376 15.0025L33.4036 33.1365Z" fill="#4A4E69"/>
</svg>
