<svg width="71" height="71" viewBox="0 0 71 71" fill="none" xmlns="http://www.w3.org/2000/svg">
<path d="M64.1353 30.6854L56.6713 30.6854L56.6713 22.8344C56.6713 21.6111 55.683 20.6228 54.4597 20.6228L32.6896 20.6228L24.5829 12.8685C24.4797 12.772 24.344 12.7177 24.2028 12.7165L6.63466 12.7165C5.41139 12.7165 4.4231 13.7048 4.4231 14.9281L4.4231 55.842C4.4231 57.0652 5.41139 58.0535 6.63466 58.0535L54.8744 58.0535C55.7728 58.0535 56.5883 57.5075 56.927 56.6713L66.1879 33.7263C66.2916 33.4637 66.3468 33.1804 66.3468 32.897C66.3468 31.6737 65.3586 30.6854 64.1353 30.6854ZM9.39911 17.6925L22.4266 17.6925L30.6923 25.5988L51.6952 25.5988L51.6952 30.6854L16.4485 30.6854C15.55 30.6854 14.7345 31.2314 14.3959 32.0677L9.39911 44.4524L9.39911 17.6925ZM53.3055 53.0775L10.9887 53.0775L18.1279 35.385L60.4516 35.385L53.3055 53.0775Z" fill="#4A4E69"/>
</svg>
