<svg width="71" height="72" viewBox="0 0 71 72" fill="none" xmlns="http://www.w3.org/2000/svg">
<g clip-path="url(#clip0)">
<path fill-rule="evenodd" clip-rule="evenodd" d="M61.9211 22.924H8.84585C7.67281 22.924 6.54782 23.39 5.71836 24.2195C4.88889 25.0489 4.42291 26.1739 4.42291 27.347V49.4617C4.42291 50.6347 4.88889 51.7597 5.71836 52.5892C6.54782 53.4186 7.67281 53.8846 8.84585 53.8846H61.9211C63.0941 53.8846 64.2191 53.4186 65.0486 52.5892C65.8781 51.7597 66.344 50.6347 66.344 49.4617V27.347C66.344 26.1739 65.8781 25.0489 65.0486 24.2195C64.2191 23.39 63.0941 22.924 61.9211 22.924ZM8.84585 18.5011C6.49977 18.5011 4.24979 19.4331 2.59087 21.092C0.931943 22.7509 -3.05176e-05 25.0009 -3.05176e-05 27.347L-3.05176e-05 49.4617C-3.05176e-05 51.8077 0.931943 54.0577 2.59087 55.7166C4.24979 57.3756 6.49977 58.3075 8.84585 58.3075H61.9211C64.2672 58.3075 66.5172 57.3756 68.1761 55.7166C69.835 54.0577 70.767 51.8077 70.767 49.4617V27.347C70.767 25.0009 69.835 22.7509 68.1761 21.092C66.5172 19.4331 64.2672 18.5011 61.9211 18.5011H8.84585Z" fill="#4A4E69"/>
<path d="M57.4982 46.1444C57.4982 45.8512 57.6147 45.5699 57.822 45.3625C58.0294 45.1552 58.3106 45.0387 58.6039 45.0387H60.8154C61.1086 45.0387 61.3899 45.1552 61.5972 45.3625C61.8046 45.5699 61.9211 45.8512 61.9211 46.1444V48.3559C61.9211 48.6491 61.8046 48.9304 61.5972 49.1378C61.3899 49.3451 61.1086 49.4616 60.8154 49.4616H58.6039C58.3106 49.4616 58.0294 49.3451 57.822 49.1378C57.6147 48.9304 57.4982 48.6491 57.4982 48.3559V46.1444ZM57.4982 37.2985C57.4982 37.0053 57.6147 36.724 57.822 36.5167C58.0294 36.3093 58.3106 36.1928 58.6039 36.1928H60.8154C61.1086 36.1928 61.3899 36.3093 61.5972 36.5167C61.8046 36.724 61.9211 37.0053 61.9211 37.2985V39.51C61.9211 39.8033 61.8046 40.0845 61.5972 40.2919C61.3899 40.4992 61.1086 40.6157 60.8154 40.6157H58.6039C58.3106 40.6157 58.0294 40.4992 57.822 40.2919C57.6147 40.0845 57.4982 39.8033 57.4982 39.51V37.2985ZM35.3835 37.2985C35.3835 37.0053 35.5 36.724 35.7073 36.5167C35.9147 36.3093 36.1959 36.1928 36.4892 36.1928H38.7007C38.9939 36.1928 39.2752 36.3093 39.4825 36.5167C39.6899 36.724 39.8064 37.0053 39.8064 37.2985V39.51C39.8064 39.8033 39.6899 40.0845 39.4825 40.2919C39.2752 40.4992 38.9939 40.6157 38.7007 40.6157H36.4892C36.1959 40.6157 35.9147 40.4992 35.7073 40.2919C35.5 40.0845 35.3835 39.8033 35.3835 39.51V37.2985ZM44.2293 37.2985C44.2293 37.0053 44.3458 36.724 44.5532 36.5167C44.7606 36.3093 45.0418 36.1928 45.3351 36.1928H51.9695C52.2627 36.1928 52.544 36.3093 52.7514 36.5167C52.9587 36.724 53.0752 37.0053 53.0752 37.2985V39.51C53.0752 39.8033 52.9587 40.0845 52.7514 40.2919C52.544 40.4992 52.2627 40.6157 51.9695 40.6157H45.3351C45.0418 40.6157 44.7606 40.4992 44.5532 40.2919C44.3458 40.0845 44.2293 39.8033 44.2293 39.51V37.2985ZM48.6523 46.1444C48.6523 45.8512 48.7688 45.5699 48.9761 45.3625C49.1835 45.1552 49.4648 45.0387 49.758 45.0387H51.9695C52.2627 45.0387 52.544 45.1552 52.7514 45.3625C52.9587 45.5699 53.0752 45.8512 53.0752 46.1444V48.3559C53.0752 48.6491 52.9587 48.9304 52.7514 49.1378C52.544 49.3451 52.2627 49.4616 51.9695 49.4616H49.758C49.4648 49.4616 49.1835 49.3451 48.9761 49.1378C48.7688 48.9304 48.6523 48.6491 48.6523 48.3559V46.1444ZM26.5376 37.2985C26.5376 37.0053 26.6541 36.724 26.8615 36.5167C27.0688 36.3093 27.3501 36.1928 27.6433 36.1928H29.8548C30.1481 36.1928 30.4293 36.3093 30.6367 36.5167C30.844 36.724 30.9605 37.0053 30.9605 37.2985V39.51C30.9605 39.8033 30.844 40.0845 30.6367 40.2919C30.4293 40.4992 30.1481 40.6157 29.8548 40.6157H27.6433C27.3501 40.6157 27.0688 40.4992 26.8615 40.2919C26.6541 40.0845 26.5376 39.8033 26.5376 39.51V37.2985ZM17.6917 37.2985C17.6917 37.0053 17.8082 36.724 18.0156 36.5167C18.2229 36.3093 18.5042 36.1928 18.7975 36.1928H21.0089C21.3022 36.1928 21.5834 36.3093 21.7908 36.5167C21.9982 36.724 22.1147 37.0053 22.1147 37.2985V39.51C22.1147 39.8033 21.9982 40.0845 21.7908 40.2919C21.5834 40.4992 21.3022 40.6157 21.0089 40.6157H18.7975C18.5042 40.6157 18.2229 40.4992 18.0156 40.2919C17.8082 40.0845 17.6917 39.8033 17.6917 39.51V37.2985ZM8.84584 37.2985C8.84584 37.0053 8.96234 36.724 9.1697 36.5167C9.37707 36.3093 9.65832 36.1928 9.95157 36.1928H12.163C12.4563 36.1928 12.7376 36.3093 12.9449 36.5167C13.1523 36.724 13.2688 37.0053 13.2688 37.2985V39.51C13.2688 39.8033 13.1523 40.0845 12.9449 40.2919C12.7376 40.4992 12.4563 40.6157 12.163 40.6157H9.95157C9.65832 40.6157 9.37707 40.4992 9.1697 40.2919C8.96234 40.0845 8.84584 39.8033 8.84584 39.51V37.2985ZM57.4982 28.4527C57.4982 28.1594 57.6147 27.8782 57.822 27.6708C58.0294 27.4634 58.3106 27.3469 58.6039 27.3469H60.8154C61.1086 27.3469 61.3899 27.4634 61.5972 27.6708C61.8046 27.8782 61.9211 28.1594 61.9211 28.4527V30.6641C61.9211 30.9574 61.8046 31.2386 61.5972 31.446C61.3899 31.6534 61.1086 31.7699 60.8154 31.7699H58.6039C58.3106 31.7699 58.0294 31.6534 57.822 31.446C57.6147 31.2386 57.4982 30.9574 57.4982 30.6641V28.4527ZM48.6523 28.4527C48.6523 28.1594 48.7688 27.8782 48.9761 27.6708C49.1835 27.4634 49.4648 27.3469 49.758 27.3469H51.9695C52.2627 27.3469 52.544 27.4634 52.7514 27.6708C52.9587 27.8782 53.0752 28.1594 53.0752 28.4527V30.6641C53.0752 30.9574 52.9587 31.2386 52.7514 31.446C52.544 31.6534 52.2627 31.7699 51.9695 31.7699H49.758C49.4648 31.7699 49.1835 31.6534 48.9761 31.446C48.7688 31.2386 48.6523 30.9574 48.6523 30.6641V28.4527ZM39.8064 28.4527C39.8064 28.1594 39.9229 27.8782 40.1303 27.6708C40.3376 27.4634 40.6189 27.3469 40.9121 27.3469H43.1236C43.4169 27.3469 43.6981 27.4634 43.9055 27.6708C44.1128 27.8782 44.2293 28.1594 44.2293 28.4527V30.6641C44.2293 30.9574 44.1128 31.2386 43.9055 31.446C43.6981 31.6534 43.4169 31.7699 43.1236 31.7699H40.9121C40.6189 31.7699 40.3376 31.6534 40.1303 31.446C39.9229 31.2386 39.8064 30.9574 39.8064 30.6641V28.4527ZM30.9605 28.4527C30.9605 28.1594 31.077 27.8782 31.2844 27.6708C31.4918 27.4634 31.773 27.3469 32.0663 27.3469H34.2777C34.571 27.3469 34.8522 27.4634 35.0596 27.6708C35.267 27.8782 35.3835 28.1594 35.3835 28.4527V30.6641C35.3835 30.9574 35.267 31.2386 35.0596 31.446C34.8522 31.6534 34.571 31.7699 34.2777 31.7699H32.0663C31.773 31.7699 31.4918 31.6534 31.2844 31.446C31.077 31.2386 30.9605 30.9574 30.9605 30.6641V28.4527ZM22.1147 28.4527C22.1147 28.1594 22.2311 27.8782 22.4385 27.6708C22.6459 27.4634 22.9271 27.3469 23.2204 27.3469H25.4319C25.7251 27.3469 26.0064 27.4634 26.2137 27.6708C26.4211 27.8782 26.5376 28.1594 26.5376 28.4527V30.6641C26.5376 30.9574 26.4211 31.2386 26.2137 31.446C26.0064 31.6534 25.7251 31.7699 25.4319 31.7699H23.2204C22.9271 31.7699 22.6459 31.6534 22.4385 31.446C22.2311 31.2386 22.1147 30.9574 22.1147 30.6641V28.4527ZM8.84584 28.4527C8.84584 28.1594 8.96234 27.8782 9.1697 27.6708C9.37707 27.4634 9.65832 27.3469 9.95157 27.3469H16.586C16.8792 27.3469 17.1605 27.4634 17.3679 27.6708C17.5752 27.8782 17.6917 28.1594 17.6917 28.4527V30.6641C17.6917 30.9574 17.5752 31.2386 17.3679 31.446C17.1605 31.6534 16.8792 31.7699 16.586 31.7699H9.95157C9.65832 31.7699 9.37707 31.6534 9.1697 31.446C8.96234 31.2386 8.84584 30.9574 8.84584 30.6641V28.4527ZM8.84584 46.1444C8.84584 45.8512 8.96234 45.5699 9.1697 45.3625C9.37707 45.1552 9.65832 45.0387 9.95157 45.0387H12.163C12.4563 45.0387 12.7376 45.1552 12.9449 45.3625C13.1523 45.5699 13.2688 45.8512 13.2688 46.1444V48.3559C13.2688 48.6491 13.1523 48.9304 12.9449 49.1378C12.7376 49.3451 12.4563 49.4616 12.163 49.4616H9.95157C9.65832 49.4616 9.37707 49.3451 9.1697 49.1378C8.96234 48.9304 8.84584 48.6491 8.84584 48.3559V46.1444ZM17.6917 46.1444C17.6917 45.8512 17.8082 45.5699 18.0156 45.3625C18.2229 45.1552 18.5042 45.0387 18.7975 45.0387H43.1236C43.4169 45.0387 43.6981 45.1552 43.9055 45.3625C44.1128 45.5699 44.2293 45.8512 44.2293 46.1444V48.3559C44.2293 48.6491 44.1128 48.9304 43.9055 49.1378C43.6981 49.3451 43.4169 49.4616 43.1236 49.4616H18.7975C18.5042 49.4616 18.2229 49.3451 18.0156 49.1378C17.8082 48.9304 17.6917 48.6491 17.6917 48.3559V46.1444Z" fill="#4A4E69"/>
</g>
<defs>
<clipPath id="clip0">
<rect width="70.767" height="70.767" fill="white" transform="translate(-3.05176e-05 0.809326)"/>
</clipPath>
</defs>
</svg>
