<svg width="71" height="72" viewBox="0 0 71 72" fill="none" xmlns="http://www.w3.org/2000/svg">
<path d="M15.1028 62.6881C16.2174 63.8027 17.6976 64.416 19.2722 64.416C20.8468 64.416 22.327 63.8027 23.4415 62.6881L36.2268 49.9029C38.3443 50.5561 40.548 50.8871 42.7639 50.8848C45.6683 50.8937 48.5457 50.3262 51.2292 49.2152C53.9128 48.1042 56.3493 46.4718 58.3975 44.4126C61.4897 41.3291 63.5975 37.3974 64.4541 33.1154C65.3107 28.8334 64.8776 24.3935 63.2097 20.3577L61.5289 16.265L49.015 28.776L42.7609 22.519L55.272 10.008L51.1763 8.32434C48.5042 7.22431 45.6418 6.66026 42.7521 6.66427C36.846 6.66427 31.2937 8.96419 27.1214 13.1394C24.2701 15.9814 22.251 19.5496 21.2832 23.4573C20.3154 27.365 20.4357 31.463 21.6311 35.3072L8.84585 48.0924C7.74101 49.1987 7.12044 50.6983 7.12044 52.2618C7.12044 53.8253 7.74101 55.3249 8.84585 56.4312L15.1028 62.6881ZM28.5132 36.7668L27.7642 34.9504C26.5396 31.9911 26.221 28.7348 26.8488 25.5941C27.4766 22.4535 29.0226 19.5699 31.2908 17.3088C32.9764 15.6122 35.0189 14.3125 37.2697 13.504C39.5205 12.6956 41.9232 12.3988 44.3031 12.6352L34.4163 22.522L49.0091 37.1177L58.9017 27.225C59.1324 29.6064 58.8324 32.0092 58.0233 34.2607C57.2141 36.5123 55.916 38.5564 54.2223 40.2462C49.6519 44.8165 42.5339 46.223 36.5777 43.7727L34.7643 43.0208L19.2722 58.5188H19.2751L19.2722 61.4674V58.5188L13.0152 52.2618L28.5132 36.7668Z" fill="#4A4E69"/>
</svg>
